<svg width="151" height="50" viewBox="0 0 151 50" fill="none" xmlns="http://www.w3.org/2000/svg">
<g>
<path fill-rule="evenodd" clip-rule="evenodd" d="M10.7862 30.216C19.3102 26.104 32.6572 28.852 38.8862 35.427C41.9632 38.461 29.8632 39.125 26.3942 36.181C18.4942 30.128 7.06418 33.967 1.97418 36.6C1.80718 36.691 1.64018 36.781 1.48318 36.856L1.48118 36.854C1.38881 36.9009 1.28677 36.9255 1.18318 36.926C1.0571 36.9253 0.93365 36.8899 0.82634 36.8237C0.719031 36.7575 0.632006 36.6631 0.574796 36.5507C0.517586 36.4384 0.492399 36.3125 0.501992 36.1867C0.511585 36.061 0.555589 35.9404 0.629184 35.838L0.628184 35.836C6.72431 27.7101 12.807 19.5741 18.8762 11.428C18.8824 11.4179 18.8899 11.4083 18.8976 11.3984C18.8998 11.3957 18.902 11.3929 18.9042 11.39C18.9175 11.3714 18.9312 11.3531 18.9452 11.335H18.9492C19.0373 11.2305 19.147 11.1465 19.2708 11.0886C19.3946 11.0308 19.5295 11.0006 19.6662 11C19.8145 11.0002 19.9606 11.0355 20.0927 11.1029C20.2248 11.1703 20.339 11.268 20.4262 11.388H20.4282L20.4372 11.401L20.4662 11.445L25.9442 19.912L28.1162 18.42C28.8192 17.959 29.3022 18.071 29.7132 18.774C32.1102 22.902 34.9892 27.887 36.5992 30.704L36.5982 30.705C36.6212 30.748 36.6352 30.796 36.6352 30.848C36.6348 30.9083 36.6168 30.9671 36.5834 31.0173C36.5501 31.0675 36.5028 31.1069 36.4474 31.1307C36.392 31.1545 36.3309 31.1616 36.2716 31.1512C36.2122 31.1407 36.1572 31.1132 36.1132 31.072L36.1122 31.073L36.1092 31.069L36.1012 31.061C33.3562 28.113 28.3432 22.716 28.3432 22.716L25.1292 24.866C25.128 24.8672 25.1267 24.8682 25.1252 24.869L25.1152 24.876H25.1132C25.0208 24.9359 24.9172 24.9766 24.8087 24.9956C24.7003 25.0146 24.5891 25.0117 24.4818 24.9868C24.3745 24.962 24.2733 24.9159 24.1842 24.8511C24.0951 24.7864 24.0199 24.7044 23.9632 24.61L19.7032 17.866L10.7862 30.216ZM103.605 18.95C103.571 18.95 103.538 18.952 103.504 18.956L103.505 18.954C101.267 19.213 99.7552 20.711 98.8882 22.787V20.647C98.8879 20.4122 98.7945 20.1871 98.6283 20.0212C98.4622 19.8552 98.237 19.762 98.0022 19.762H96.1482C96.0319 19.762 95.9167 19.7849 95.8093 19.8295C95.7018 19.874 95.6042 19.9393 95.522 20.0216C95.4398 20.1039 95.3747 20.2015 95.3303 20.309C95.2858 20.4165 95.2631 20.5317 95.2632 20.648V34.154C95.2632 34.644 95.6592 35.04 96.1482 35.04H98.0022C98.2372 35.04 98.4625 34.9467 98.6287 34.7805C98.7948 34.6143 98.8882 34.389 98.8882 34.154V29.017C98.8882 25.172 100.754 23.116 103.513 22.801L103.512 22.799C104.063 22.736 104.49 22.269 104.49 21.701V19.835C104.49 19.6003 104.397 19.3752 104.231 19.2092C104.065 19.0432 103.84 18.95 103.605 18.95ZM115.918 29.318C115.918 31.296 114.12 32.644 111.723 32.644C110.016 32.644 108.668 31.804 108.668 30.307V30.247C108.668 28.719 110.016 27.79 112.293 27.79C113.701 27.79 114.989 28.06 115.918 28.419V29.318ZM112.473 18.982C110.273 18.982 108.705 19.376 107.213 19.976C107.007 20.0626 106.841 20.2238 106.749 20.4275C106.657 20.6311 106.645 20.862 106.716 21.074L106.713 21.07L107.145 22.342L107.146 22.341C107.185 22.4517 107.246 22.5535 107.325 22.6405C107.404 22.7274 107.5 22.7978 107.606 22.8475C107.713 22.8972 107.828 22.9252 107.946 22.9299C108.063 22.9347 108.18 22.916 108.29 22.875C109.421 22.467 110.548 22.217 111.963 22.217C114.48 22.217 115.858 23.416 115.858 25.603V25.902C114.63 25.512 113.401 25.244 111.484 25.244C107.799 25.244 105.074 26.921 105.074 30.426V30.486C105.074 33.662 107.709 35.37 110.705 35.37C113.102 35.37 114.75 34.38 115.828 33.093V34.155C115.828 34.644 116.225 35.04 116.713 35.04H118.538C118.654 35.04 118.769 35.0171 118.877 34.9726C118.984 34.9282 119.082 34.863 119.164 34.7808C119.246 34.6986 119.311 34.601 119.356 34.4937C119.4 34.3863 119.423 34.2712 119.423 34.155V25.663C119.423 21.439 117.146 18.982 112.473 18.982ZM127.272 15.72C127.272 15.1861 127.06 14.6741 126.683 14.2966C126.305 13.9191 125.793 13.707 125.259 13.707C124.725 13.707 124.213 13.9191 123.836 14.2966C123.458 14.6741 123.246 15.1861 123.246 15.72C123.246 16.2539 123.458 16.7659 123.836 17.1434C124.213 17.5209 124.725 17.733 125.259 17.733C125.793 17.733 126.305 17.5209 126.683 17.1434C127.06 16.7659 127.272 16.2539 127.272 15.72ZM145.278 25.595L145.272 25.5931C143.539 25.0371 142.018 24.5492 142.018 23.476V23.416C142.018 22.486 142.828 21.828 144.235 21.828C145.346 21.828 146.67 22.234 147.975 22.917C148.174 23.0136 148.401 23.0323 148.612 22.9693C148.824 22.9064 149.004 22.7664 149.117 22.577L149.607 21.7C149.693 21.543 149.744 21.348 149.744 21.155C149.744 20.728 149.501 20.357 149.146 20.172H149.147C147.657 19.407 145.931 18.952 144.324 18.952C141.179 18.952 138.692 20.779 138.692 23.776V23.836C138.692 26.861 141.299 27.82 143.635 28.479C143.759 28.5169 143.882 28.5542 144.004 28.5911L144.006 28.5916C145.71 29.1079 147.171 29.5503 147.171 30.696V30.756C147.171 31.805 146.272 32.464 144.714 32.464C143.314 32.464 141.734 31.969 140.228 31.001C140.031 30.8837 139.797 30.8473 139.574 30.8993C139.351 30.9513 139.157 31.0878 139.032 31.28L139.03 31.277L138.494 32.091H138.495C138.342 32.3298 138.286 32.6185 138.34 32.8971C138.394 33.1758 138.554 33.4228 138.785 33.587C140.593 34.741 142.696 35.34 144.625 35.34C147.92 35.34 150.496 33.692 150.496 30.366V30.306C150.496 27.461 147.89 26.412 145.583 25.693C145.481 25.66 145.379 25.6274 145.278 25.595ZM54.6502 18.322L58.2452 26.712L58.6352 27.657H50.6652L51.0552 26.711L54.6502 18.322ZM64.9862 33.807L56.5312 14.451H56.5302C56.4614 14.2926 56.3478 14.1577 56.2033 14.063C56.0589 13.9683 55.8899 13.9179 55.7172 13.918H53.5852C53.4124 13.9178 53.2434 13.9682 53.0989 14.0629C52.9545 14.1576 52.8409 14.2925 52.7722 14.451H52.7712L44.3142 33.808V33.806C44.2568 33.9407 44.2338 34.0875 44.2471 34.2334C44.2603 34.3792 44.3095 34.5194 44.3903 34.6416C44.471 34.7637 44.5808 34.8639 44.7097 34.9333C44.8386 35.0026 44.9828 35.039 45.1292 35.039H46.6732C47.2162 35.039 47.6812 34.714 47.8882 34.249L49.3052 30.922H59.9972L61.4142 34.248C61.6212 34.714 62.0862 35.039 62.6292 35.039H64.1722C64.3186 35.039 64.4627 35.0026 64.5917 34.9333C64.7206 34.8639 64.8304 34.7637 64.9111 34.6416C64.9918 34.5194 65.041 34.3792 65.0543 34.2334C65.0676 34.0875 65.0445 33.9407 64.9872 33.806L64.9862 33.807ZM69.4372 14.068H67.5822C67.3475 14.068 67.1224 14.1612 66.9564 14.3272C66.7904 14.4932 66.6972 14.7183 66.6972 14.953V34.154C66.6972 34.644 67.0932 35.04 67.5832 35.04H69.4372C69.672 35.0397 69.8971 34.9463 70.063 34.7801C70.229 34.614 70.3222 34.3888 70.3222 34.154V14.954C70.3223 14.8377 70.2995 14.7225 70.2551 14.615C70.2107 14.5075 70.1455 14.4098 70.0633 14.3276C69.9811 14.2453 69.8835 14.18 69.7761 14.1355C69.6687 14.0909 69.5535 14.068 69.4372 14.068ZM77.2442 14.068H75.3892C75.1545 14.068 74.9294 14.1612 74.7634 14.3272C74.5974 14.4932 74.5042 14.7183 74.5042 14.953V34.154C74.5042 34.644 74.9002 35.04 75.3902 35.04H77.2442C77.479 35.0397 77.7041 34.9463 77.87 34.7801C78.036 34.614 78.1292 34.3888 78.1292 34.154V14.954C78.1293 14.8377 78.1065 14.7225 78.0621 14.615C78.0177 14.5075 77.9525 14.4098 77.8703 14.3276C77.7881 14.2453 77.6905 14.18 77.5831 14.1355C77.4757 14.0909 77.3605 14.068 77.2442 14.068ZM134.011 14.068H132.156C131.921 14.068 131.696 14.1612 131.53 14.3272C131.364 14.4932 131.271 14.7183 131.271 14.953V34.154C131.271 34.644 131.667 35.04 132.156 35.04H134.011C134.246 35.0397 134.471 34.9463 134.637 34.7801C134.803 34.614 134.896 34.3888 134.896 34.154V14.954C134.896 14.8377 134.874 14.7225 134.829 14.615C134.785 14.5075 134.72 14.4098 134.637 14.3276C134.555 14.2453 134.458 14.18 134.35 14.1355C134.243 14.0909 134.128 14.068 134.011 14.068ZM126.186 19.762H124.331C124.096 19.762 123.871 19.8552 123.705 20.0212C123.539 20.1872 123.446 20.4123 123.446 20.647V34.155C123.446 34.643 123.842 35.04 124.332 35.04H126.186C126.421 35.04 126.646 34.9468 126.812 34.7808C126.978 34.6148 127.071 34.3897 127.071 34.155V20.647C127.071 20.4123 126.978 20.1872 126.812 20.0212C126.646 19.8552 126.421 19.762 126.186 19.762ZM95.7312 14.068H80.4842C80.2495 14.068 80.0244 14.1612 79.8584 14.3272C79.6924 14.4932 79.5992 14.7183 79.5992 14.953V16.603C79.5992 17.091 79.9962 17.488 80.4842 17.488H86.2522V34.154C86.2522 34.644 86.6492 35.04 87.1382 35.04H89.0742C89.309 35.0397 89.5341 34.9463 89.7 34.7801C89.866 34.614 89.9592 34.3888 89.9592 34.154V17.488H95.7312C95.966 17.4877 96.1911 17.3943 96.357 17.2281C96.523 17.062 96.6162 16.8368 96.6162 16.602V14.953C96.6162 14.8368 96.5933 14.7217 96.5488 14.6143C96.5043 14.5069 96.4391 14.4094 96.357 14.3272C96.2748 14.245 96.1772 14.1798 96.0699 14.1354C95.9625 14.0909 95.8474 14.068 95.7312 14.068Z" fill="white"/>
</g>
</svg>
