<svg width="148" height="50" viewBox="0 0 148 50" fill="none" xmlns="http://www.w3.org/2000/svg">
<path fill-rule="evenodd" clip-rule="evenodd" d="M27.6854 24.5709C28.8515 24.783 29.9542 25.257 30.9104 25.9574C31.8297 26.638 31.6519 27.4065 31.5123 27.8615C30.3757 31.5479 27.9544 34.7043 24.6882 36.757C21.422 38.8097 17.5278 39.6225 13.7132 39.0478C9.89862 38.4731 6.41673 36.549 3.90034 33.6251C1.38394 30.7012 0 26.9715 0 23.1138C0 19.2562 1.38394 15.5265 3.90034 12.6026C6.41673 9.6787 9.89862 7.75457 13.7132 7.17986C17.5278 6.60515 21.422 7.41801 24.6882 9.47073C27.9544 11.5234 30.3757 14.6797 31.5123 18.3662C31.6519 18.8212 31.8297 19.5897 30.9104 20.2703C29.9542 20.9704 28.8514 21.4441 27.6854 21.6558C27.6849 21.6471 27.6849 21.6383 27.6854 21.6296C27.5848 21.0701 27.4279 20.5222 27.2173 19.9942C28.1807 19.8457 29.0946 19.4696 29.8835 18.897C29.8829 18.8955 29.8823 18.894 29.8817 18.8924C29.879 18.8859 29.876 18.8785 29.876 18.8717C28.8606 15.5838 26.6995 12.7692 23.7854 10.9391C20.8712 9.10907 17.3973 8.385 13.9947 8.89845C10.5921 9.41189 7.48649 11.1288 5.24212 13.7373C2.99774 16.3458 1.76343 19.6727 1.76343 23.1138C1.76343 26.555 2.99774 29.882 5.24212 32.4904C7.48649 35.0989 10.5921 36.8158 13.9947 37.3293C17.3973 37.8427 20.8712 37.1186 23.7854 35.2886C26.6995 33.4585 28.8606 30.6439 29.876 27.356C29.8768 27.3536 29.8777 27.3512 29.8786 27.3487C29.881 27.3424 29.8835 27.3361 29.8835 27.3307C29.0945 26.7582 28.1806 26.3818 27.2173 26.2326C27.4282 25.7053 27.585 25.158 27.6854 24.5991V24.5709ZM17.0563 29.936C19.3733 29.936 20.6512 28.806 21.6744 27.8979V27.8989L21.6773 27.8963C22.7385 26.9566 23.6556 26.1445 26.0976 26.1445C26.4706 26.1458 26.8428 26.177 27.2107 26.2382L27.2023 26.2588C27.0559 26.6223 26.8841 26.9752 26.6884 27.3147L25.0548 30.14C24.3181 31.4157 23.2586 32.4751 21.9828 33.2116C20.707 33.9482 19.2597 34.3358 17.7866 34.3358H14.5185C13.0453 34.3358 11.5981 33.9482 10.3223 33.2116C9.04641 32.4751 7.98692 31.4157 7.25031 30.14L5.61672 27.31C4.88031 26.0342 4.49262 24.587 4.49262 23.1138C4.49262 21.6407 4.88031 20.1934 5.61672 18.9176L7.25031 16.0876C7.98692 14.8119 9.04641 13.7525 10.3223 13.016C11.5981 12.2794 13.0453 11.8917 14.5185 11.8918H17.7866C19.2597 11.8917 20.707 12.2794 21.9828 13.016C23.2586 13.7525 24.3181 14.8119 25.0548 16.0876L26.6884 18.9176C26.8841 19.2571 27.0559 19.61 27.2023 19.9735L27.2107 19.9951C26.8426 20.0541 26.4704 20.0839 26.0976 20.084C23.6653 20.084 22.7459 19.2738 21.69 18.3434L21.6744 18.3296C20.6512 17.4216 19.3761 16.2926 17.0563 16.2926H15.6709C13.9942 16.2926 12.4693 16.9011 11.3777 18.0057C10.3115 19.0851 9.72452 20.5623 9.72452 22.166V24.0616C9.72452 25.6652 10.3115 27.1425 11.3777 28.2219C12.4693 29.3265 13.9942 29.936 15.6709 29.936H17.0563ZM78.5718 11.9416H75.9096V34.2863H78.5718V11.9416ZM87.8484 21.093C90.1442 21.093 92.3179 22.4973 92.7765 25.5313H82.5538C82.9817 22.8689 84.9718 21.093 87.8484 21.093ZM92.4493 30.0201C91.6686 31.2371 90.1599 32.1732 88.0941 32.1732C85.2468 32.1732 83.0731 30.6127 82.5538 27.8576H95.3788C95.4409 27.4627 95.4716 27.0637 95.4724 26.6641C95.4724 22.3793 92.4765 18.5833 87.8505 18.5833C83.076 18.5833 79.8315 22.1032 79.8315 26.6341C79.8315 31.2212 83.1081 34.6849 88.0341 34.6849C91.095 34.6849 93.4215 33.3069 94.7673 31.2212L92.4493 30.0201ZM110.288 34.2855V24.8894L110.291 24.8913C110.291 20.9726 107.934 18.5854 104.353 18.5854C102.208 18.5854 100.525 19.3812 99.3917 21.187V18.9833H96.728V34.2855H99.3917V26.1748C99.3917 22.5632 101.381 21.1243 103.83 21.1243C106.187 21.1243 107.625 22.5322 107.625 25.042V34.2855H110.288ZM124.971 26.6334C124.971 23.5113 122.614 21.1541 119.523 21.1541C116.461 21.1541 114.105 23.5113 114.105 26.6334C114.105 29.7554 116.461 32.1126 119.523 32.1126C122.612 32.1126 124.971 29.7554 124.971 26.6334ZM127.633 11.9416V34.2863H124.971V31.653C123.747 33.5252 121.788 34.6842 119.186 34.6842C114.931 34.6842 111.442 31.1634 111.442 26.6334C111.442 22.1034 114.931 18.5826 119.186 18.5826C121.787 18.5826 123.747 19.7453 124.971 21.6129V11.9416H127.633ZM129.78 11.9416H132.443V34.2863H129.78V11.9416ZM71.163 26.6331C71.163 23.5111 68.8067 21.1539 65.7147 21.1539C62.6544 21.1539 60.2972 23.5111 60.2972 26.6331C60.2972 29.7551 62.6544 32.1123 65.7147 32.1123C68.8039 32.1123 71.163 29.7551 71.163 26.6331ZM73.8264 18.983V34.2851H71.163V31.6527C69.9385 33.525 67.9801 34.6839 65.3786 34.6839C61.1238 34.6839 57.6339 31.1631 57.6339 26.6331C57.6339 22.1031 61.1238 18.5823 65.3786 18.5823C67.9801 18.5823 69.9385 19.7449 71.163 21.6125V18.983H73.8264ZM49.4193 31.7338C50.8514 31.9788 52.3228 31.843 53.6859 31.3401C54.5556 31.0159 55.3652 30.5492 56.0815 29.9592L57.6149 32.3838C55.8678 33.7358 53.7587 34.5387 51.5548 34.6907C49.3509 34.8426 47.1516 34.3369 45.2355 33.2374C43.3193 32.138 41.7727 30.4945 40.7918 28.5152C39.8107 26.5359 39.4395 24.3098 39.725 22.1193C40.0104 19.9287 40.9399 17.8722 42.3955 16.2104C43.8511 14.5487 45.7672 13.3564 47.9011 12.7849C50.035 12.2133 52.2905 12.2882 54.3818 13C56.4732 13.7118 58.306 15.0284 59.6483 16.783L57.3444 18.4681C56.9736 17.988 56.5503 17.551 56.0825 17.1649C54.9604 16.2418 53.6155 15.6299 52.1824 15.3904C50.7493 15.151 49.2784 15.2926 47.9173 15.8009C46.5562 16.3092 45.3526 17.1665 44.4272 18.2867C43.5019 19.4068 42.8874 20.7506 42.6451 22.1833C42.4029 23.6159 42.5416 25.087 43.0472 26.4491C43.5529 27.8113 44.4078 29.0165 45.5262 29.944C46.6446 30.8716 47.9871 31.4888 49.4193 31.7338ZM145.296 18.9832V27.6687C145.296 30.4771 143.662 32.2558 141.169 32.2558C138.675 32.2558 136.869 30.4771 136.869 27.6687V18.9832H134.175V27.4084C134.175 31.8233 136.926 34.6897 141.169 34.6897C144.838 34.6897 145.411 32.3681 145.411 32.3101V35.4349C145.411 38.5307 144.064 40.2794 141.255 40.2794C140.251 40.2844 139.28 39.9244 138.522 39.2665C137.764 38.6086 137.272 37.6977 137.135 36.7034L134.727 37.5459C135.072 39.0189 135.905 40.3317 137.091 41.2706C138.278 42.2095 139.746 42.719 141.259 42.7162C145.616 42.7162 148 39.8488 148 35.4349V18.9832H145.296ZM17.0573 18.0107H15.6718C13.1199 18.0107 11.4433 19.8333 11.4433 22.1662V24.0619C11.4433 26.3948 13.1199 28.2174 15.6718 28.2174H17.0573C18.7256 28.2174 19.5866 27.4542 20.536 26.6127C21.7027 25.5785 23.0028 24.4261 26.0986 24.4261C26.6306 24.4255 27.1615 24.4744 27.6844 24.5721C27.8548 23.6075 27.8548 22.6206 27.6844 21.656C27.1614 21.7533 26.6306 21.8022 26.0986 21.8021C23.0016 21.8021 21.7016 20.6494 20.5351 19.6152C19.5861 18.7737 18.7255 18.0107 17.0573 18.0107Z" fill="white"/>
</svg>
