<svg width="131" height="50" viewBox="0 0 131 50" fill="none" xmlns="http://www.w3.org/2000/svg">
<g>
<path d="M14.5201 11.2161V23.4746H16.922V18.4021H22.738V16.217H16.922V11.2161H14.5201Z" fill="white"/>
<mask id="mask0_731_1420" style="mask-type:luminance" maskUnits="userSpaceOnUse" x="1" y="11" width="130" height="30">
<path d="M131 11H1V40.3163H131V11Z" fill="white"/>
</mask>
<g mask="url(#mask0_731_1420)">
<path d="M1.00001 17.4829V17.5191C0.971352 18.3608 1.11357 19.1997 1.41809 19.9849C1.7226 20.7702 2.18309 21.4856 2.77176 22.088C3.36042 22.6904 4.06505 23.1672 4.84311 23.4897C5.62116 23.8122 6.4565 23.9737 7.2987 23.9644C8.22511 24.0062 9.14899 23.8382 10.0014 23.4729C10.8538 23.1077 11.6128 22.5547 12.2216 21.8553L10.7042 20.2938C10.2801 20.7492 9.76642 21.112 9.19543 21.3595C8.62443 21.6069 8.00844 21.7336 7.38613 21.7317C5.19095 21.7324 3.52902 19.9057 3.52902 17.4829V17.4454C3.52902 15.0464 5.19095 13.232 7.38902 13.232C8.59922 13.2541 9.75328 13.7465 10.6066 14.6049L12.1349 12.8108C11.5169 12.1957 10.7769 11.7168 9.96266 11.405C9.1484 11.0931 8.27787 10.9551 7.40709 11C6.55531 10.9857 5.70948 11.1442 4.92066 11.4659C4.13185 11.7876 3.41643 12.2658 2.8176 12.8717C2.21878 13.4777 1.74898 14.1987 1.43658 14.9912C1.12419 15.7838 0.975671 16.6314 1.00001 17.4829Z" fill="white"/>
<path d="M36.7552 18.5061V16.3658H30.7911V13.3614H37.5688V11.2211H28.4044V23.7433H37.6591V21.6031H30.7947V18.5061H36.7552Z" fill="white"/>
<path d="M75.2136 15.5276V15.4901C75.2136 12.8968 73.3869 11.2211 70.5595 11.2211H65.5795V23.7433H67.9842V19.8703H70.2878C73.28 19.8703 75.2136 18.1665 75.2136 15.5276ZM67.9878 13.3975H70.3275C71.8839 13.3975 72.7763 14.1808 72.7763 15.5457V15.5826C72.7763 16.8673 71.8139 17.7308 70.3824 17.7308H67.9885L67.9878 13.3975Z" fill="white"/>
<path d="M85.9453 18.5061V16.3658H79.9818V13.3614H86.7589V11.2211H77.5923V23.7433H86.847V21.6031H79.9826V18.5061H85.9453Z" fill="white"/>
<path d="M97.901 20.8487L97.9205 20.8964L99.0578 23.7441H101.554L96.2925 11.1294H93.9803L88.7163 23.7426H91.1398L92.296 20.8473L97.901 20.8487ZM93.1782 18.6217L95.0988 13.8383L95.1711 14.0095L97.0657 18.7265H93.1392L93.1782 18.6217Z" fill="white"/>
<path d="M107.775 18.2525L111.693 23.7441H114.566L109.312 16.4894L109.377 16.4171L114.263 11.2211H111.428L106.023 17.1636V11.2211H103.618V23.7433H106.023V19.9137L106.055 19.8804L107.697 18.1463L107.775 18.2525Z" fill="white"/>
<path d="M77.6132 32.2112H83.3483L83.0138 33.4634H78.6508L78.1039 35.5466H81.9761L81.6409 36.7873H77.7693L77.2115 38.9276H81.6409L81.3063 40.1798H75.5149L77.6132 32.2112Z" fill="white"/>
<path d="M85.5131 32.2112H86.7863L89.4302 37.8473L90.9259 32.2112H92.2779L90.1824 40.1805H89.0263L86.2921 34.3854L84.7747 40.1805H83.4133L85.5131 32.2112Z" fill="white"/>
<path d="M94.5952 32.2112H100.33L99.995 33.4634H95.6328L95.0858 35.5466H98.9567L98.6214 36.7873H94.7506L94.1927 38.9276H98.6221L98.2876 40.1798H92.4961L94.5952 32.2112Z" fill="white"/>
<path d="M102.552 32.2112H105.386C105.812 32.1707 106.242 32.2185 106.649 32.3517C107.056 32.4848 107.431 32.7005 107.751 32.9851C108.132 33.3909 108.337 33.9315 108.32 34.488C108.329 34.824 108.271 35.1585 108.148 35.4714C108.025 35.7844 107.841 36.0695 107.606 36.3097C107.07 36.8226 106.389 37.1566 105.655 37.2656L107.105 40.1805H105.532L104.192 37.4036H102.562L101.84 40.1819H100.456L102.552 32.2112ZM104.661 36.1615C104.992 36.1875 105.325 36.1476 105.641 36.044C105.957 35.9405 106.249 35.7753 106.501 35.5582C106.627 35.4329 106.726 35.2838 106.793 35.1194C106.861 34.9551 106.894 34.779 106.892 34.6015C106.897 34.3315 106.797 34.0701 106.612 33.8731C106.244 33.5795 105.776 33.4406 105.307 33.4858H103.6L102.886 36.1594L104.661 36.1615Z" fill="white"/>
<path d="M109.503 36.8899C109.52 35.6138 110.037 34.3953 110.942 33.4952C111.847 32.5951 113.068 32.0849 114.344 32.0739C114.936 32.03 115.53 32.1364 116.07 32.3832C116.611 32.63 117.08 33.0093 117.434 33.4858L116.408 34.3739C116.155 34.0426 115.826 33.7775 115.448 33.6013C115.071 33.4251 114.656 33.3431 114.24 33.3623C113.343 33.3953 112.495 33.7786 111.877 34.43C111.259 35.0815 110.922 35.9491 110.937 36.8465C110.92 37.1425 110.966 37.4386 111.073 37.7151C111.18 37.9917 111.344 38.2423 111.555 38.4503C111.766 38.6582 112.02 38.8187 112.298 38.9211C112.576 39.0235 112.873 39.0653 113.168 39.0439C113.745 39.0482 114.313 38.9073 114.82 38.6342L115.301 36.9477H113.304L113.628 35.7294H116.952L115.892 39.5439C115.047 40.0637 114.072 40.3321 113.08 40.3178C112.615 40.349 112.148 40.283 111.71 40.1239C111.272 39.9649 110.871 39.7162 110.534 39.3939C110.197 39.0715 109.931 38.6825 109.753 38.2516C109.575 37.8208 109.488 37.3575 109.499 36.8913" fill="white"/>
<path d="M120.423 37.0149L118.689 32.2105H120.206L121.389 35.8082L124.479 32.2105H126.175L121.768 37.163L120.973 40.1798H119.6L120.423 37.0149Z" fill="white"/>
<path d="M125.238 18.5061V16.3658H119.274V13.3614H126.052V11.2211H116.887V23.7433H126.142V21.6031H119.273V18.5061H125.238Z" fill="white"/>
<path d="M49.4429 20.1189V20.0828C49.4429 17.8695 47.9616 17.0321 45.5721 16.3976C43.314 15.8073 42.702 15.5067 42.702 14.5139V14.4763C42.702 13.6757 43.4144 13.1583 44.5178 13.1583C45.6942 13.22 46.8241 13.6376 47.7578 14.3556L48.9956 12.5239C47.7286 11.5371 46.1626 11.0125 44.5568 11.0369C42.0213 11.0369 40.3175 12.5225 40.3175 14.7343V14.7704C40.3175 17.2806 41.9968 17.9122 44.3682 18.5278C46.4811 19.0806 47.0591 19.4736 47.0591 20.3566V20.3935C47.0591 21.2606 46.2867 21.804 45.0446 21.804C43.6558 21.7726 42.3245 21.2436 41.293 20.3133L39.8839 22.0345C41.3022 23.2604 43.1157 23.9327 44.9904 23.9276C47.7362 23.9276 49.4458 22.468 49.4458 20.1189" fill="white"/>
<path d="M59.8068 20.8487L60.9629 23.7441H63.4587L58.1991 11.1294H55.8832L50.6222 23.7426H53.0464L54.2025 20.8473L59.8068 20.8487ZM57.0047 13.8397L58.9679 18.728H55.0414L57.0047 13.8397Z" fill="white"/>
<path d="M131 26.7558H24.9382V11.2218H22.5342V29.2096H128.813L131 26.7558Z" fill="white"/>
</g>
</g>
</svg>
