<svg width="119" height="50" viewBox="0 0 119 50" fill="none" xmlns="http://www.w3.org/2000/svg">
<g clip-path="url(#clip0_730_617)">
<path fill-rule="evenodd" clip-rule="evenodd" d="M1 31.9761L5.22855 28.7594C7.47403 31.671 9.85865 33.0127 12.5159 33.0127C15.1584 33.0127 17.4775 31.6865 19.6223 28.7979L23.9091 31.9376C20.8166 36.1023 16.9692 38.3026 12.5159 38.3026C8.07733 38.3026 4.19421 36.1178 1 31.9761Z" fill="white"/>
<path fill-rule="evenodd" clip-rule="evenodd" d="M12.5012 17.9957L4.97512 24.4365L1.4982 20.4291L12.5162 11L23.4486 20.4364L19.9545 24.4291L12.5012 17.9957Z" fill="white"/>
<path d="M52.7719 16.4381H48.5107V34.0712H52.7719V16.4381Z" fill="white"/>
<path fill-rule="evenodd" clip-rule="evenodd" d="M39.9001 34.1489C37.3881 34.1489 35.2949 33.3405 33.597 31.7235C31.8991 30.0834 31.0618 27.9814 31.0618 25.4173C31.0618 22.8302 31.9224 20.7051 33.6202 19.0419C35.3414 17.3556 37.4346 16.5241 39.9234 16.5241C42.9934 16.5241 45.7148 17.8407 47.2962 19.8966L44.5285 22.784C43.2027 21.375 41.7608 20.6589 40.2024 20.6589C38.8767 20.6589 37.7836 21.0978 36.8765 21.9986C35.9926 22.8995 35.5507 24.0314 35.5507 25.3943C35.5507 26.7109 35.9926 27.8197 36.8765 28.7206C37.7836 29.5984 38.8767 30.0372 40.1792 30.0372C41.8771 30.0372 43.3656 29.298 44.5982 27.8428L47.4825 30.5916C46.6918 31.6311 45.6216 32.4857 44.2958 33.1556C42.9704 33.8255 41.5049 34.1489 39.9001 34.1489Z" fill="white"/>
<path fill-rule="evenodd" clip-rule="evenodd" d="M59.1659 17.8479C59.1659 19.114 58.1329 20.1403 56.8581 20.1403C55.5832 20.1403 54.5498 19.114 54.5498 17.8479C54.5498 16.5819 55.5832 15.5556 56.8581 15.5556C58.1329 15.5556 59.1659 16.5819 59.1659 17.8479ZM58.9884 21.1982H54.7273V34.0704H58.9884V21.1982Z" fill="white"/>
<path fill-rule="evenodd" clip-rule="evenodd" d="M67.2246 34.1702C65.2012 34.1702 63.573 33.5465 62.294 32.2991C61.0379 31.0517 60.4097 29.4579 60.4097 27.4944C60.4097 25.531 61.0379 23.9371 62.3169 22.6898C63.5964 21.4424 65.2476 20.8187 67.2944 20.8187C69.9694 20.8187 72.3182 22.1123 73.4113 24.5377L70.1319 26.2471C69.4807 25.1614 68.5738 24.607 67.3875 24.607C66.527 24.607 65.829 24.8842 65.271 25.4386C64.7359 25.993 64.4569 26.6859 64.4569 27.4944C64.4569 29.1807 65.6895 30.4281 67.3411 30.4281C68.527 30.4281 69.6202 29.7813 70.0855 28.788L73.3649 30.7284C72.2484 32.8535 69.946 34.1702 67.2246 34.1702Z" fill="white"/>
<path fill-rule="evenodd" clip-rule="evenodd" d="M78.6961 16.4381H74.435V34.0712H78.6961V29.5823L79.1952 29.1198L83.0904 34.0712H88.0474L82.0628 26.464L87.7478 21.199H82.5411L78.6961 24.7602V16.4381Z" fill="white"/>
<path fill-rule="evenodd" clip-rule="evenodd" d="M88.8158 27.408V16.4381H93.2548V27.1624C93.2548 29.0796 94.3797 30.0036 96.0067 30.0036C97.6099 30.0036 98.7586 29.0334 98.7586 27.1624V16.4381H103.197V27.408C103.197 32.4436 99.6374 34.3378 96.0067 34.3378C92.3994 34.3378 88.8158 32.4436 88.8158 27.408Z" fill="white"/>
<path fill-rule="evenodd" clip-rule="evenodd" d="M112.786 34.422C116.218 34.422 119 31.4221 119 27.7214C119 24.0208 116.218 21.0209 112.786 21.0209C111.387 21.0209 110.096 21.5193 109.057 22.3604V21.1972H104.974V39.3593H109.057V33.0825C110.096 33.9236 111.387 34.422 112.786 34.422ZM109.057 27.7283V27.7146C109.061 26.0622 110.371 24.7238 111.987 24.7238C113.605 24.7238 114.916 26.0659 114.916 27.7214C114.916 29.377 113.605 30.7191 111.987 30.7191C110.371 30.7191 109.061 29.3807 109.057 27.7283Z" fill="white"/>
</g>
<defs>
<clipPath id="clip0_730_617">
<rect width="118" height="50" fill="white" transform="translate(0.5)"/>
</clipPath>
</defs>
</svg>
