<svg width="116" height="50" viewBox="0 0 116 50" fill="none" xmlns="http://www.w3.org/2000/svg">
<g clip-path="url(#clip0_668_230)">
<path fill-rule="evenodd" clip-rule="evenodd" d="M24.3767 24.5081C24.8722 28.7267 22.3104 32.7065 18.2727 33.9905C14.235 35.2747 9.85985 33.5011 7.84797 29.7647C4.41751 29.9061 1.30241 27.8704 0.0724371 24.7388C-0.0499696 24.4264 -0.0158464 24.0739 0.164226 23.7907C0.344296 23.5074 0.648556 23.3276 0.982672 23.3071L5.55822 23.0234L4.42228 19.4076C4.12223 18.4523 4.31956 17.4093 4.94778 16.63C5.57601 15.8507 6.55149 15.4388 7.54554 15.5331C10.0313 15.7708 11.682 15.7611 12.4976 15.5043C13.3134 15.2474 14.648 14.3195 16.5016 12.7205C17.2604 12.067 18.2954 11.8394 19.2564 12.1146C20.2175 12.3899 20.976 13.1312 21.2754 14.0878L22.3997 17.6712L26.2489 15.3038C26.5344 15.128 26.8864 15.0999 27.1958 15.2283C27.5051 15.3566 27.7344 15.6259 27.8124 15.9525C28.5861 19.2019 27.2233 22.6375 24.3767 24.5081ZM12.6692 36.2024L10.5809 35.2015C9.85031 34.8668 8.98671 35.1827 8.64168 35.9109C8.29659 36.6391 8.59792 37.5098 9.31828 37.8661L11.4078 38.8665C12.1383 39.2012 13.002 38.8852 13.3471 38.157C13.6921 37.4288 13.3908 36.5581 12.6703 36.2018L12.6692 36.2024ZM27.2476 29.9994C26.9088 29.8066 26.5072 29.757 26.1317 29.8617C25.7562 29.9665 25.4375 30.2168 25.246 30.5575L24.1068 32.5786C23.7338 33.284 23.9877 34.1587 24.6796 34.5522C25.3716 34.9456 26.2505 34.715 26.6628 34.0319L27.801 32.0106C28.2018 31.3013 27.9541 30.4011 27.2476 29.9994Z" fill="white"/>
<path d="M77.4253 15.4298C76.4344 15.4298 75.6577 16.1682 75.6577 17.1203C75.6577 18.0529 76.4344 18.8107 77.4253 18.8107C78.377 18.8107 79.1922 18.0529 79.1922 17.1203C79.1922 16.1682 78.377 15.4298 77.4253 15.4298ZM43.0287 15.527C41.8827 15.527 40.5038 16.9454 40.5038 19.4131V20.851C39.7852 20.3458 38.7946 19.996 37.6682 19.996C34.6383 19.996 32.5213 22.3083 32.5213 25.3395C32.5213 28.4095 34.5995 30.6829 37.6682 30.6829C39.2219 30.6829 40.5426 30.0028 41.2029 29.2256C41.7468 30.0417 42.4848 30.4886 43.0092 30.4886C43.3783 30.4886 43.6113 30.2554 43.6113 29.7891V16.2265C43.6113 15.7601 43.3977 15.527 43.0287 15.527ZM72.9188 15.527C71.7731 15.527 70.3942 16.9454 70.3942 19.4131V29.2644C70.3942 29.9834 70.6659 30.2943 71.4236 30.2943H72.4727C73.2298 30.2943 73.5015 29.9834 73.5015 29.2644V16.2265C73.5015 15.7601 73.2879 15.527 72.9188 15.527ZM104.266 19.6657C104.091 19.6657 103.897 19.724 103.645 19.86C102.849 20.2875 102.402 20.3846 101.742 20.3846C100.751 20.3846 100.246 20.0932 98.537 20.0932C95.6426 20.0932 93.798 21.8419 93.798 24.193C93.798 25.3395 94.3414 26.3693 95.3323 27.1854C94.0311 27.846 93.2538 29.3227 93.2538 30.78C93.2538 33.481 95.4486 35.2491 98.6924 35.2491C101.974 35.2491 104.13 33.481 104.13 30.78C104.13 29.3227 103.354 27.8266 102.052 27.1854C103.004 26.3693 103.586 25.3395 103.586 24.193C103.586 23.7073 103.49 23.2604 103.295 22.8523C104.383 22.4637 104.869 21.5894 104.869 20.5401C104.869 20.0349 104.693 19.6657 104.266 19.6657ZM63.111 19.996C59.9646 19.996 57.5952 22.2111 57.5952 25.3395C57.5952 28.4289 59.9646 30.6829 63.111 30.6829C66.2574 30.6829 68.6266 28.4289 68.6266 25.3395C68.6266 22.2111 66.2574 19.996 63.111 19.996ZM87.0974 19.996C85.8543 19.996 84.5531 20.5206 83.7373 21.4922C83.1931 20.6372 82.455 20.1903 81.9115 20.1903C81.5425 20.1903 81.3093 20.4235 81.3093 20.8899V29.2644C81.3093 29.9834 81.5817 30.2943 82.3387 30.2943H83.3878C84.1449 30.2943 84.4172 29.9834 84.4172 29.2644V25.6115C84.4172 24.7177 84.6308 24.057 84.9999 23.6296C85.3879 23.1827 85.9706 22.9495 86.631 22.9495C87.3305 22.9495 87.8544 23.1827 88.2045 23.6296C88.5344 24.057 88.6899 24.6983 88.6899 25.6309V29.2644C88.6899 30.0222 89.0008 30.2943 89.7193 30.2943H90.7677C91.4869 30.2943 91.7972 30.0222 91.7972 29.2644V25.5337C91.7972 23.5713 91.4092 22.3666 90.6129 21.4339C89.816 20.5206 88.6121 19.996 87.0974 19.996ZM110.87 19.996C107.724 19.996 105.354 22.2111 105.354 25.3395C105.354 28.4289 107.724 30.6829 110.87 30.6829C114.016 30.6829 116.386 28.4289 116.386 25.3395C116.386 22.2111 114.016 19.996 110.87 19.996ZM54.9926 20.3846H53.9438C53.1864 20.3846 52.9144 20.6955 52.9144 21.4145V25.0286C52.9144 26.0196 52.7202 26.6802 52.3318 27.1076C51.9822 27.4963 51.4384 27.7294 50.8363 27.7294C50.2342 27.7294 49.7681 27.5352 49.4379 27.1854C49.0301 26.7579 48.8358 26.1167 48.8358 24.9314V21.4145C48.8358 20.6567 48.5251 20.3846 47.8065 20.3846H46.7577C46.039 20.3846 45.7283 20.6567 45.7283 21.4145V25.2229C45.7283 27.2048 46.2138 28.5844 47.1461 29.4782C47.923 30.2166 48.9912 30.6829 50.3313 30.6829C51.6714 30.6829 52.8368 30.1194 53.6136 29.2062C54.1575 30.0417 54.8955 30.4886 55.4199 30.4886C55.7889 30.4886 56.022 30.2554 56.022 29.7891V21.4145C56.022 20.6955 55.7501 20.3846 54.9926 20.3846ZM77.9492 20.3846H76.9008C76.1823 20.3846 75.8713 20.6567 75.8713 21.4145V29.2644C75.8713 30.0222 76.1823 30.2943 76.9008 30.2943H77.9492C78.6684 30.2943 78.9786 30.0222 78.9786 29.2644V21.4145C78.9786 20.6567 78.6684 20.3846 77.9492 20.3846ZM98.6924 22.5414C99.8382 22.5414 100.595 23.2798 100.595 24.3679C100.595 25.3783 99.7604 26.1944 98.6924 26.1944C97.6434 26.1944 96.789 25.3783 96.789 24.3679C96.789 23.2798 97.5657 22.5414 98.6924 22.5414ZM38.0954 27.8849C36.7359 27.8849 35.6677 26.8745 35.6677 25.3395C35.6677 23.8045 36.7359 22.794 38.0954 22.794C39.4356 22.794 40.5038 23.8045 40.5038 25.3395C40.5038 26.8745 39.4356 27.8849 38.0954 27.8849ZM63.111 27.8849C61.6543 27.8849 60.7415 26.8162 60.7415 25.3395C60.7415 23.8628 61.6543 22.794 63.111 22.794C64.5676 22.794 65.4808 23.8628 65.4808 25.3395C65.4808 26.8162 64.5676 27.8849 63.111 27.8849ZM110.87 27.8849C109.413 27.8849 108.5 26.8162 108.5 25.3395C108.5 23.8628 109.413 22.794 110.87 22.794C112.326 22.794 113.239 23.8628 113.239 25.3395C113.239 26.8162 112.326 27.8849 110.87 27.8849ZM98.6924 32.7232C97.3325 32.7232 96.3226 31.8293 96.3226 30.6829C96.3226 29.4588 97.2547 28.6427 98.6924 28.6427C100.129 28.6427 101.062 29.4782 101.062 30.6829C101.062 31.8099 100.032 32.7232 98.6924 32.7232Z" fill="white"/>
</g>
<defs>
<clipPath id="clip0_668_230">
<rect width="116" height="50" fill="white"/>
</clipPath>
</defs>
</svg>
