<svg width="141" height="50" viewBox="0 0 141 50" fill="none" xmlns="http://www.w3.org/2000/svg">
<g>
<path d="M12.343 25.408C12.343 26.78 11.763 27.993 10.813 28.942C9.758 29.997 8.228 30.262 8.228 31.158C8.228 32.371 10.18 32.002 12.053 33.875C13.293 35.115 14.057 36.75 14.057 38.649C14.057 42.394 11.05 45.375 7.279 45.375C3.507 45.374 0.5 42.397 0.5 38.65C0.5 36.751 1.265 35.116 2.505 33.876C4.377 32.004 6.329 32.373 6.329 31.16C6.329 30.263 4.799 29.999 3.744 28.944C2.794 27.994 2.214 26.781 2.214 25.357C2.214 22.614 4.456 20.398 7.199 20.398C7.727 20.398 8.202 20.478 8.597 20.478C9.31 20.478 9.679 20.161 9.679 19.66C9.679 19.37 9.547 19 9.547 18.605C9.547 17.708 10.312 16.969 11.235 16.969C12.158 16.969 12.897 17.734 12.897 18.657C12.897 19.633 12.132 20.082 11.552 20.293C11.077 20.451 10.707 20.662 10.707 21.137C10.707 22.031 12.343 22.901 12.343 25.407V25.408ZM11.815 38.651C11.815 36.041 9.89 33.93 7.279 33.93C4.667 33.93 2.742 36.04 2.742 38.651C2.742 41.236 4.667 43.373 7.279 43.373C9.889 43.373 11.815 41.233 11.815 38.651ZM10.26 25.355C10.26 23.694 8.915 22.322 7.28 22.322C5.644 22.322 4.3 23.694 4.3 25.355C4.3 27.017 5.644 28.389 7.28 28.389C8.915 28.389 10.26 27.017 10.26 25.355V25.355ZM21.837 20.66C22.681 20.66 23.314 21.293 23.314 22.084C23.314 22.875 22.707 23.508 21.864 23.508C20.993 23.508 20.518 22.955 19.648 22.955C18.804 22.955 18.144 23.561 18.144 24.59V32.898C18.144 33.1953 18.0259 33.4804 17.8157 33.6907C17.6054 33.9009 17.3203 34.019 17.023 34.019C16.7257 34.019 16.4406 33.9009 16.2303 33.6907C16.0201 33.4804 15.902 33.1953 15.902 32.898V21.715C15.9002 21.5678 15.9274 21.4216 15.9821 21.2849C16.0368 21.1481 16.1179 21.0235 16.2208 20.9182C16.3237 20.8129 16.4464 20.7289 16.5818 20.671C16.7172 20.6132 16.8627 20.5826 17.01 20.581C18.144 20.581 17.933 21.662 19.067 21.662C20.149 21.662 20.544 20.66 21.837 20.66V20.66ZM24.291 27.307C24.291 23.324 27.034 20.449 30.806 20.449C34.261 20.449 37.004 22.981 37.004 26.437C37.004 27.254 36.477 27.808 35.712 27.808H27.14C26.77 27.808 26.638 27.94 26.638 28.23C26.638 28.89 27.166 30.103 27.958 30.894C28.748 31.685 29.83 32.16 31.36 32.16C32.494 32.16 33.496 31.738 34.261 31.184C34.498 31 34.762 30.894 35.026 30.894C35.58 30.894 36.028 31.395 36.028 31.923C36.028 32.239 35.923 32.503 35.659 32.74C34.551 33.664 32.995 34.165 31.307 34.165C27.219 34.165 24.291 31.211 24.291 27.307V27.307ZM33.628 23.509C32.889 22.77 31.94 22.401 30.806 22.401C29.672 22.401 28.616 22.85 27.852 23.614C27.245 24.221 26.823 25.012 26.823 25.54C26.823 25.804 26.981 25.91 27.324 25.91H34.182C34.498 25.91 34.657 25.804 34.657 25.54C34.657 24.907 34.156 24.036 33.628 23.509V23.509ZM39.273 27.307C39.273 23.324 42.015 20.449 45.787 20.449C49.243 20.449 51.986 22.981 51.986 26.437C51.986 27.254 51.458 27.808 50.693 27.808H42.121C41.751 27.808 41.62 27.94 41.62 28.23C41.62 28.89 42.147 30.103 42.939 30.894C43.73 31.685 44.811 32.16 46.341 32.16C47.475 32.16 48.478 31.738 49.242 31.184C49.48 31 49.744 30.894 50.007 30.894C50.561 30.894 51.01 31.395 51.01 31.923C51.01 32.239 50.904 32.503 50.64 32.74C49.533 33.664 47.977 34.165 46.288 34.165C42.2 34.165 39.273 31.211 39.273 27.307V27.307ZM48.609 23.509C47.871 22.77 46.921 22.401 45.787 22.401C44.653 22.401 43.598 22.85 42.833 23.614C42.227 24.221 41.804 25.012 41.804 25.54C41.804 25.804 41.963 25.91 42.306 25.91H49.163C49.48 25.91 49.638 25.804 49.638 25.54C49.638 24.907 49.137 24.036 48.609 23.509V23.509ZM65.2 34.033C65.0507 34.0342 64.9027 34.0057 64.7645 33.9491C64.6263 33.8926 64.5007 33.8091 64.3951 33.7036C64.2895 33.5981 64.2059 33.4726 64.1492 33.3345C64.0926 33.1963 64.0639 33.0483 64.065 32.899V25.725C64.065 23.852 62.588 22.428 60.689 22.428C58.764 22.428 57.287 23.878 57.287 25.725V32.899C57.287 33.1963 57.1689 33.4814 56.9587 33.6917C56.7484 33.9019 56.4633 34.02 56.166 34.02C55.8687 34.02 55.5836 33.9019 55.3733 33.6917C55.1631 33.4814 55.045 33.1963 55.045 32.899V21.689C55.045 21.082 55.546 20.581 56.126 20.581C57.234 20.581 57.181 21.584 57.762 21.584C58.342 21.584 59.133 20.449 61.19 20.449C64.065 20.449 66.307 22.849 66.307 25.725V32.899C66.3088 33.0462 66.2817 33.1923 66.227 33.3289C66.1724 33.4656 66.0913 33.5901 65.9885 33.6954C65.8857 33.8008 65.7632 33.8848 65.6279 33.9427C65.4926 34.0006 65.3472 34.0313 65.2 34.033V34.033ZM80.34 34.033C80.1907 34.0342 80.0427 34.0057 79.9045 33.9491C79.7663 33.8926 79.6407 33.8091 79.5351 33.7036C79.4295 33.5981 79.3459 33.4726 79.2892 33.3345C79.2326 33.1963 79.2039 33.0483 79.205 32.899V25.724C79.205 23.852 77.728 22.427 75.829 22.427C73.904 22.427 72.427 23.877 72.427 25.724V32.899C72.427 33.1963 72.3089 33.4814 72.0987 33.6917C71.8884 33.9019 71.6033 34.02 71.306 34.02C71.0087 34.02 70.7236 33.9019 70.5133 33.6917C70.3031 33.4814 70.185 33.1963 70.185 32.899V15.121C70.185 14.8237 70.3031 14.5386 70.5133 14.3283C70.7236 14.1181 71.0087 14 71.306 14C71.6033 14 71.8884 14.1181 72.0987 14.3283C72.3089 14.5386 72.427 14.8237 72.427 15.121V20.951C72.427 21.267 72.558 21.451 72.901 21.451C73.481 21.451 74.273 20.449 76.331 20.449C79.205 20.449 81.447 22.849 81.447 25.724V32.899C81.4488 33.0463 81.4216 33.1924 81.3669 33.3291C81.3122 33.4659 81.2311 33.5905 81.1282 33.6958C81.0253 33.8011 80.9026 33.8851 80.7672 33.943C80.6317 34.0008 80.4863 34.0314 80.339 34.033H80.34ZM84.53 27.307C84.53 23.483 87.59 20.449 91.44 20.449C95.292 20.449 98.351 23.483 98.351 27.307C98.351 31.132 95.291 34.165 91.441 34.165C87.592 34.165 84.531 31.132 84.531 27.307H84.53ZM96.112 27.307C96.112 24.643 94.134 22.454 91.443 22.454C88.779 22.454 86.801 24.644 86.801 27.307C86.801 29.971 88.779 32.16 91.443 32.16C94.133 32.16 96.112 29.971 96.112 27.307V27.307ZM102.545 20.581C103.178 20.581 103.679 21.081 103.679 21.715V28.889C103.679 30.762 105.156 32.186 107.056 32.186C108.981 32.186 110.458 30.736 110.458 28.889V21.715C110.458 21.4177 110.576 21.1326 110.786 20.9223C110.997 20.7121 111.282 20.594 111.579 20.594C111.876 20.594 112.161 20.7121 112.372 20.9223C112.582 21.1326 112.7 21.4177 112.7 21.715V32.925C112.7 33.531 112.199 34.032 111.619 34.032C110.511 34.032 110.564 33.03 109.983 33.03C109.403 33.03 108.612 34.164 106.554 34.164C103.679 34.164 101.438 31.764 101.438 28.889V21.715C101.44 21.082 101.939 20.581 102.545 20.581V20.581ZM116.682 33.189C116.181 32.872 115.838 32.556 115.838 31.949C115.838 31.369 116.286 30.921 116.84 30.921C117.5 30.921 117.79 31.316 118.344 31.606C119.029 32.002 119.821 32.213 120.797 32.213C122.59 32.213 123.487 31.395 123.487 30.393C123.487 28.969 122.168 28.705 120.375 28.23C118.159 27.65 116.023 26.99 116.023 24.432C116.023 22.164 117.763 20.449 120.849 20.449C122.063 20.449 123.197 20.766 124.094 21.319C124.41 21.504 124.727 21.9 124.727 22.349C124.727 22.929 124.252 23.429 123.645 23.429C123.249 23.429 122.933 23.166 122.537 22.902C122.142 22.639 121.561 22.402 120.77 22.402C119.003 22.402 118.238 23.166 118.238 24.195C118.238 25.54 119.531 25.856 121.377 26.305C123.54 26.832 125.676 27.518 125.676 30.129C125.676 32.398 123.988 34.165 120.744 34.165C119.161 34.165 117.737 33.848 116.682 33.189V33.189ZM127.787 27.307C127.787 23.324 130.53 20.449 134.302 20.449C137.757 20.449 140.5 22.981 140.5 26.437C140.5 27.254 139.973 27.808 139.208 27.808H130.636C130.266 27.808 130.135 27.94 130.135 28.23C130.135 28.89 130.662 30.103 131.453 30.894C132.245 31.685 133.326 32.16 134.856 32.16C135.99 32.16 136.992 31.738 137.757 31.184C137.995 31 138.258 30.894 138.522 30.894C139.076 30.894 139.524 31.395 139.524 31.923C139.524 32.239 139.419 32.503 139.155 32.74C138.047 33.664 136.491 34.165 134.803 34.165C130.717 34.165 127.787 31.211 127.787 27.307V27.307ZM137.127 23.509C136.388 22.77 135.439 22.401 134.305 22.401C133.17 22.401 132.115 22.85 131.35 23.614C130.744 24.221 130.322 25.012 130.322 25.54C130.322 25.804 130.48 25.91 130.823 25.91H137.681C137.997 25.91 138.155 25.804 138.155 25.54C138.155 24.907 137.654 24.036 137.127 23.509V23.509Z" fill="white"/>
</g>
</svg>
