<svg width="134" height="50" viewBox="0 0 134 50" fill="none" xmlns="http://www.w3.org/2000/svg">
<g clip-path="url(#clip0_668_233)">
<path fill-rule="evenodd" clip-rule="evenodd" d="M24.5734 15.2461C24.9831 16.4543 25.1925 17.7211 25.1925 18.9972V21.5769H18.7141V14.8464H13.4951L13.631 15.2447C14.0441 16.4571 14.2549 17.7289 14.2549 19.0099V32.031H18.7141V25.2842H25.1925V32.031H29.6517V14.8464H24.4376L24.5734 15.2461Z" fill="white"/>
<path fill-rule="evenodd" clip-rule="evenodd" d="M51.0413 20.9605C52.4109 20.9605 53.0816 21.7188 53.2854 23.4603L57.2486 23.2353C57.0449 21.6622 56.6954 20.848 55.763 19.8372C54.568 18.5456 52.9649 17.899 50.8955 17.899C46.6408 17.899 43.7847 20.8197 43.7847 25.2018C43.7847 29.4707 46.5241 32.3072 50.6621 32.3072C52.9939 32.3072 54.8008 31.5206 56.0247 29.9482C56.7534 29.0491 57.0449 28.3191 57.2486 26.8301L53.2854 26.6059C53.0229 28.2349 52.2652 28.9932 50.9245 28.9932C49.2344 28.9932 48.5347 27.8417 48.5347 25.061C48.5347 22.2528 49.3221 20.9605 51.0413 20.9605Z" fill="white"/>
<path fill-rule="evenodd" clip-rule="evenodd" d="M38.6844 25.9739C38.6844 26.706 38.7643 27.6341 38.2988 28.253C37.8701 28.8218 37.1414 29.1917 36.4297 29.1917C35.3586 29.1917 34.8796 28.6209 34.8796 27.3985V18.1605H30.9029L30.905 27.3985C30.905 29.3544 31.0932 30.0398 31.6847 30.8816C32.3893 31.8839 33.6748 32.198 34.8287 32.2843C36.3469 32.3974 38.238 32.0975 39.1513 30.7337C39.2992 31.2855 39.4789 31.949 39.5051 32.0332H42.7715V18.1555L38.6851 18.1711L38.6844 25.9739Z" fill="white"/>
<path fill-rule="evenodd" clip-rule="evenodd" d="M71.9759 18.1661H67.8372C67.8372 18.1661 62.6288 24.1971 62.3366 24.5338V14.8486H57.5824L57.7218 15.2589C58.13 16.4635 58.338 17.7276 58.3387 18.9994L58.3443 32.0332H62.3366V28.4943L64.8142 25.7419L67.816 32.0332H72.5087L67.816 22.8771L71.9759 18.1661Z" fill="white"/>
<path fill-rule="evenodd" clip-rule="evenodd" d="M106.374 20.7701V18.1649H102.491L102.498 32.0326H106.608V26.3872C106.608 23.4976 107.795 21.9662 110.797 21.9662V17.8777C109.054 17.8777 106.983 18.8128 106.374 20.7701Z" fill="white"/>
<path fill-rule="evenodd" clip-rule="evenodd" d="M115.966 20.7701V18.1649H112.082L112.089 32.0326H116.199V26.3872C116.199 23.4976 117.387 21.9662 120.389 21.9662V17.8777C118.646 17.8777 116.575 18.8128 115.966 20.7701Z" fill="white"/>
<path fill-rule="evenodd" clip-rule="evenodd" d="M130.946 18.1648L128.3 26.0391L125.68 18.1648H121.363L126.36 32.0361L125.069 36.0001H128.38C128.762 34.8733 133.789 20.0273 134.42 18.1648H130.946Z" fill="white"/>
<path fill-rule="evenodd" clip-rule="evenodd" d="M82.4825 25.8929C82.4373 26.5635 82.3297 27.3621 82.0496 28.0348C81.7114 28.8476 81.1228 29.4764 80.0899 29.4764C78.7492 29.4764 77.9038 28.3814 77.9038 26.5557V24.2625C77.9038 22.2684 78.7492 21.0044 80.1486 21.0044C82.5582 21.0044 82.5986 24.1734 82.4825 25.8929ZM81.4595 17.9048C79.9561 17.9048 78.8362 18.4664 77.9038 19.9271V14.8483H72.9111L73.0505 15.2607C73.458 16.4639 73.6667 17.7265 73.6674 18.9969L73.678 32.0321H77.0506C77.0598 32.0158 77.2578 31.2816 77.4199 30.6789C78.4082 31.9118 79.3534 32.3136 81.023 32.3136C84.6651 32.3136 86.8222 29.6172 86.8222 25.0392C86.8222 20.6578 84.7528 17.9048 81.4595 17.9048Z" fill="white"/>
<path fill-rule="evenodd" clip-rule="evenodd" d="M94.8841 20.5738C96.4285 20.5738 97.1282 21.4163 97.3029 23.4103H92.2317C92.4355 21.4721 93.2809 20.5738 94.8841 20.5738ZM101.471 25.7976C101.442 23.3544 101.149 22.2028 100.305 20.8263C99.2265 19.0289 97.0694 17.9056 94.6803 17.9056C90.5706 17.9056 87.7435 20.9105 87.7435 25.236C87.7435 29.4773 90.5706 32.3131 94.8253 32.3131C96.9237 32.3131 98.4688 31.7239 99.7218 30.4322C100.433 29.6959 100.811 29.0918 101.243 27.9063L97.4253 27.6608C97.0574 28.8039 96.2283 29.4214 94.9718 29.4214C93.3099 29.4214 92.202 28.2415 92.202 26.4441C92.202 26.331 92.202 26.0226 92.2317 25.7976H101.471Z" fill="white"/>
<path fill-rule="evenodd" clip-rule="evenodd" d="M7.94068 20.9385L7.57491 20.4879L8.06165 20.8034C9.12852 21.4944 10.206 22.1091 11.2672 22.6319C11.4802 21.8934 11.6224 21.1351 11.6896 20.3768C8.36728 17.4767 6.66369 14.7781 6.20949 14C5.75459 14.7781 4.05099 17.4767 0.728697 20.3768C0.795907 21.1351 0.938109 21.8934 1.15177 22.6319C2.21227 22.1091 3.28975 21.4944 4.35662 20.8034L4.84336 20.4879L4.4776 20.9385C3.18009 22.5364 1.67459 24.0438 0 25.4182C0.0325438 26.2175 0.145739 27.0175 0.338172 27.7963C2.31485 27.0635 4.0524 26.2168 6.20807 25.0461L4.32337 27.2827V27.4447C4.32337 29.0045 4.06655 30.5543 3.56425 32.0305H8.85402C8.35172 30.5543 8.09491 29.0045 8.09491 27.4447V26.0406C9.20988 26.6101 10.3935 27.1455 12.0808 27.7963C12.2725 27.0175 12.3857 26.2175 12.4183 25.4182C10.7437 24.0438 9.23747 22.5364 7.94068 20.9385Z" fill="white"/>
</g>
<defs>
<clipPath id="clip0_668_233">
<rect width="134" height="50" fill="white"/>
</clipPath>
</defs>
</svg>
