<svg width="181" height="50" viewBox="0 0 181 50" fill="none" xmlns="http://www.w3.org/2000/svg">
<g>
<path fill-rule="evenodd" clip-rule="evenodd" d="M15.7337 19.4584L7.86685 22.0397L0 19.4584V17H15.7337V19.4584ZM0 32.7339V21.7941L3.68759 23.0233V32.7339H0ZM15.7332 21.7941V32.7339H12.0456V23.0233L15.7332 21.7941ZM8.86168 24.0452L9.71043 23.7623V32.7354H6.02281V23.7623L6.87151 24.0452L6.87153 24.0452C7.24073 24.1682 7.42533 24.2298 7.61418 24.2542C7.78176 24.2759 7.9514 24.2759 8.11905 24.2542C8.30785 24.2298 8.49249 24.1682 8.86168 24.0452ZM63.3137 30.5756H70.5134V28.3612H65.6824V25.8949H69.5449V23.6825H65.6824V21.3959H70.5134V19.1854H63.3137V30.5756ZM126.511 30.5756H119.311V19.1854H126.511V21.3959H121.68V23.6825H125.543V25.8949H121.68V28.3612H126.511V30.5756ZM33.4412 27.2705L30.6098 19.192H27.5342V30.5745H29.77V22.8749L32.5039 30.5783H34.3648L37.0225 22.9003V30.5745H39.2876V19.1881H36.3058L33.4412 27.2705ZM81.2146 22.5901V23.0783C81.2146 24.6053 80.6545 25.6969 79.2015 26.2047L81.486 30.5748H78.8632L76.9108 26.6342H75.1808V30.567H72.818V19.1826H77.6997C79.7113 19.1826 81.2146 20.3269 81.2146 22.5901ZM77.4986 24.414C78.2621 24.414 78.8483 24.0351 78.8483 23.0471V22.8166C78.8483 21.7856 78.2621 21.3951 77.4986 21.3951H75.1554V24.414H77.4986ZM117.162 23.0783V22.5901C117.162 20.3269 115.656 19.1826 113.647 19.1826H108.765V30.567H111.128V26.6342H112.857L114.809 30.5748H117.439L115.161 26.2047C116.602 25.6969 117.162 24.6053 117.162 23.0783ZM114.795 23.0471C114.795 24.0351 114.21 24.414 113.446 24.414H111.103V21.3951H113.446C114.21 21.3951 114.795 21.7856 114.795 22.8166V23.0471ZM41.4669 23.7874C41.4669 20.9423 43.3748 19.0287 45.9719 19.0287C48.5671 19.0287 50.5236 20.9345 50.5236 23.7874V25.9648C50.5236 28.8118 48.5924 30.745 45.9719 30.745C43.3514 30.745 41.4669 28.8118 41.4669 25.9648V23.7874ZM45.9661 28.5267C47.1532 28.5267 48.153 27.6441 48.153 25.9882V23.8285C48.153 22.153 47.1631 21.2606 45.9661 21.2606C44.769 21.2606 43.8376 22.1491 43.8376 23.8285V25.9882C43.8376 27.6636 44.7788 28.5267 45.9661 28.5267ZM56.5826 19.1552H52.5092V30.5766H56.5826C59.2012 30.5766 61.1617 28.6434 61.1617 25.7964V23.9159C61.1617 21.0649 59.2247 19.1552 56.5826 19.1552ZM58.7404 25.7612C58.7404 27.4171 57.7425 28.2998 56.5436 28.2998H54.8525V21.3891H56.5494C57.7484 21.3891 58.7462 22.2795 58.7462 23.9276L58.7404 25.7612ZM168.816 22.5901V23.0783C168.816 24.6053 168.245 25.6969 166.808 26.2047L169.089 30.5748H166.459L164.506 26.6342H162.778V30.567H160.419V19.1826H165.301C167.312 19.1826 168.816 20.3269 168.816 22.5901ZM165.1 24.414C165.862 24.414 166.447 24.0351 166.447 23.0471V22.8166C166.447 21.7856 165.866 21.3951 165.1 21.3951H162.757V24.414H165.1ZM155.718 26.1425C155.718 27.8219 154.917 28.5405 153.755 28.5405C152.593 28.5405 151.823 27.8258 151.823 26.1425V19.1909H149.461V26.1425C149.461 28.9896 151.193 30.7373 153.756 30.7373C156.321 30.7373 158.092 28.9759 158.092 26.1425V19.1909H155.718V26.1425ZM127.771 30.5762L131.821 19.1665L134.363 19.1606L138.329 30.5469H135.871L135.115 28.3091H130.9L130.136 30.5762H127.771ZM133.079 21.9179L131.626 26.1787L134.445 26.1885L133.079 21.9179ZM177.413 19.1909L174.796 24.1156L172.257 19.1909H169.654L173.581 26.3359V30.5791H175.944V26.3807L180 19.1909H177.413ZM86.1627 19.1854L90.1362 26.3538V19.1854H92.4404V30.5737H90.1889L85.8094 22.8213V30.5756H83.4974V19.1854H86.1627ZM98.2518 21.3927H101.462V30.5705H103.827V21.3927H107.03V19.1881H98.2479L98.2518 21.3927ZM139.036 27.2087C139.036 29.6515 140.809 30.7704 143.381 30.7704C145.79 30.7704 147.597 29.755 147.597 27.1286C147.597 24.8889 145.669 24.1995 144.374 23.7934C144.174 23.7305 143.971 23.6727 143.772 23.6158C142.681 23.3045 141.68 23.019 141.68 22.0847C141.68 21.2705 142.451 21.0088 143.381 21.0088C144.398 21.0088 145.068 21.5185 145.068 22.3757V22.5358H147.333V22.2878C147.333 19.8411 145.318 18.9682 143.365 18.9682C140.981 18.9682 139.251 20.0442 139.251 22.3113C139.251 24.6467 141.165 25.3009 142.465 25.6914C143.979 26.1503 145.199 26.5253 145.199 27.4703C145.199 28.4154 144.385 28.7357 143.322 28.7357C142.323 28.7357 141.346 28.4154 141.346 27.152V26.8748H139.036V27.2087Z" fill="white"/>
</g>
</svg>
