<svg width="120" height="50" viewBox="0 0 120 50" fill="none" xmlns="http://www.w3.org/2000/svg">
<g clip-path="url(#clip0_1945_313)">
<path fill-rule="evenodd" clip-rule="evenodd" d="M120.5 34.3688V34.2569L116.371 30.1683H109.751C108.307 31.5798 106.702 32.9307 104.377 34.2569V34.3746L120.5 34.3688ZM112.418 9L116.505 13.0488C116.505 13.0488 116.563 20.8581 109.714 27.6448C102.841 34.4542 95.0597 34.3765 95.0597 34.3765L90.8966 30.2574V30.1397C90.8966 30.1397 98.7922 30.1246 105.507 23.4081C112.368 16.5456 112.3 9 112.3 9H112.418ZM4.527 25.8341C4.527 22.4401 5.92873 19.8984 8.78421 19.8984C9.85174 19.8984 10.4311 20.2103 10.4311 20.2122L12.2486 16.5157C12.2486 16.5157 11.4781 15.8714 9.65125 15.8714C7.05383 15.8714 5.3699 18.1848 4.52514 21.0477H4.45645V16.3913H0.5V34.3393H4.527V25.8341ZM57.4664 34.3375V22.3622C57.4664 18.3017 55.0342 15.9067 51.2524 15.9067C48.5417 15.9067 46.7779 17.5368 46.1152 20.1435C45.419 17.4347 43.5846 15.9067 40.7699 15.9067C37.9312 15.9067 36.2491 17.6427 35.6327 20.4554H35.5974V16.3913H31.641V34.3356H35.5974V25.1026C35.5974 21.5972 36.639 19.2022 39.3459 19.2022C41.7169 19.2022 42.6433 20.9178 42.6433 23.8197V34.3356H46.531V25.1026C46.531 21.2241 47.7304 19.2022 50.2108 19.2022C52.6058 19.2022 53.5434 20.8008 53.5434 23.8197V34.3375H57.4664ZM13.0544 20.7153C14.1405 17.5981 16.5226 15.8714 20.1634 15.8714C25.2543 15.8714 27.6604 18.4707 27.6622 23.2998V34.3375H23.7392V31.4207H23.704C22.8054 33.6115 20.8633 34.7887 18.0116 34.7887C14.2185 34.7887 11.6935 32.4938 11.6935 29.4433C11.6935 24.8218 16.5089 24.1948 19.3876 23.8199C19.7517 23.7725 20.0847 23.7291 20.3732 23.6822C22.6828 23.3054 23.7058 22.986 23.7058 21.4598C23.7058 19.9671 22.421 18.9943 20.2339 18.9943C18.29 18.9943 17.0164 20.0656 16.4056 21.9463L13.0544 20.7153ZM19.0179 32.0706C21.9643 32.0706 23.8079 29.6532 23.8079 25.8897V23.595C23.225 24.9801 21.955 25.5574 19.4337 26.0253C16.9701 26.482 15.6853 27.5904 15.6853 29.1871C15.6853 30.8897 16.9348 32.0706 19.0179 32.0706ZM65.5889 20.0748C66.4374 17.5721 68.4203 15.9067 71.4208 15.9067C76.1754 15.9067 79.5766 19.7592 79.5788 25.3105C79.5788 30.9008 76.1754 34.8573 71.4208 34.8573C68.4224 34.8573 66.5082 33.3664 65.5889 30.6557H65.5541V41.246H61.4228V16.3913H65.5889V20.0748ZM65.2755 25.3644C65.2755 29.1129 67.1024 31.5265 70.3958 31.5265C73.4724 31.5265 75.5167 28.9978 75.5167 25.3644C75.5167 21.7328 73.4703 19.2022 70.3958 19.2022C67.3197 19.2022 65.2755 21.6158 65.2755 25.3644Z" fill="white"/>
</g>
<defs>
<clipPath id="clip0_1945_313">
<rect width="120" height="50" fill="white"/>
</clipPath>
</defs>
</svg>
