<svg width="115" height="50" viewBox="0 0 115 50" fill="none" xmlns="http://www.w3.org/2000/svg">
<g clip-path="url(#clip0_731_2)">
<path fill-rule="evenodd" clip-rule="evenodd" d="M0.5 25.0392C0.5 16.1805 7.68051 9 16.5392 9C25.3979 9 32.5784 16.1805 32.5784 25.0392C32.5784 33.8979 25.3979 41.0784 16.5392 41.0784H2.82271C1.9658 41.0784 1.53661 40.0418 2.14253 39.4359L5.1974 36.381C2.2955 33.4776 0.5 29.4678 0.5 25.0392ZM25.0612 16.3392C25.0612 17.8051 23.8729 18.9934 22.407 18.9934C21.1522 18.9934 20.1008 18.1227 19.824 16.9525C18.2828 17.1621 17.0908 18.4868 17.0908 20.085L17.0906 20.0937C19.4646 20.1819 21.6348 20.8508 23.354 21.9148C23.9858 21.429 24.7768 21.1401 25.6354 21.1401C27.7039 21.1401 29.3808 22.817 29.3808 24.8856C29.3808 26.3786 28.5072 27.6676 27.2433 28.2693C27.1255 32.6218 22.3843 36.1229 16.5527 36.1229C10.7256 36.1229 5.98708 32.627 5.86245 28.2791C4.58736 27.6816 3.70421 26.3867 3.70421 24.8856C3.70421 22.817 5.38111 21.1401 7.44966 21.1401C8.31233 21.1401 9.10688 21.4318 9.74009 21.9218C11.4432 20.8648 13.5904 20.1962 15.9404 20.0967C15.9404 20.0948 15.9403 20.093 15.9402 20.0912C15.9402 20.0889 15.9401 20.0867 15.9401 20.0845C15.9401 17.8563 17.6384 16.0177 19.8087 15.7949C20.0598 14.5901 21.1277 13.685 22.407 13.685C23.8729 13.685 25.0612 14.8734 25.0612 16.3392Z" fill="white"/>
<path fill-rule="evenodd" clip-rule="evenodd" d="M13.3874 27.4436C13.3286 28.7154 12.485 29.1764 11.5025 29.1764C10.5199 29.1764 9.77084 28.4855 9.82966 27.2143C9.88847 25.9424 10.732 25.1108 11.7146 25.1108C12.6971 25.1108 13.4456 26.1717 13.3874 27.4436ZM19.7103 27.4436C19.7685 28.7154 20.6126 29.1764 21.5952 29.1764C22.5777 29.1764 23.3268 28.4855 23.268 27.2143C23.2092 25.9424 22.3657 25.1108 21.3831 25.1108C20.4006 25.1108 19.6515 26.1717 19.7103 27.4436ZM12.8467 30.4052C13.9997 30.2888 15.2466 30.2246 16.5476 30.2246C17.8497 30.2246 19.0966 30.2882 20.2496 30.4052C20.4469 30.4254 20.5716 30.6297 20.495 30.8127C19.8487 32.3554 18.3255 33.439 16.5481 33.439C14.7708 33.439 13.247 32.3554 12.6013 30.8127C12.5247 30.6297 12.6494 30.4254 12.8467 30.4052Z" fill="white"/>
<path d="M49.7558 20.5717L47.9722 24.8132C47.7479 24.7003 47.2133 24.5741 46.7083 24.5741C46.2034 24.5741 45.697 24.7003 45.2054 24.9394C44.2356 25.431 43.5198 26.4141 43.5198 27.8324V35.5995H39.0808V20.4856H43.3936V22.6063H43.4782C44.4896 21.2578 46.0341 20.2613 48.0435 20.2613C48.7741 20.2613 49.4766 20.4024 49.7573 20.5702L49.7558 20.5717Z" fill="white"/>
<path d="M48.8941 28.0867C48.8941 23.7189 51.8866 20.2631 56.3672 20.2631C60.426 20.2631 63.3338 23.2274 63.3338 27.3991C63.3338 28.1297 63.264 28.8173 63.1096 29.4782H52.9395C53.4029 31.0658 54.7796 32.3014 56.8439 32.3014C57.9815 32.3014 59.5973 31.8945 60.4676 31.2202L61.8443 34.535C60.5656 35.4053 58.6142 35.8271 56.9003 35.8271C52.1109 35.8271 48.8941 32.7365 48.8941 28.0867ZM52.8549 26.6966H59.2453C59.2453 24.7585 57.9251 23.7323 56.3093 23.7323C54.4826 23.7323 53.247 24.9115 52.8549 26.6966Z" fill="white"/>
<path d="M101.423 13.6973C102.913 13.6973 104.133 14.9195 104.133 16.4076C104.133 17.8957 102.911 19.1179 101.423 19.1179C99.935 19.1179 98.7127 17.8957 98.7127 16.4076C98.7127 14.9195 99.935 13.6973 101.423 13.6973ZM103.642 35.6012H99.2028V20.4872H103.642V35.6012Z" fill="white"/>
<path d="M75.6542 13.9711L75.6408 21.9209H75.5562C74.3339 20.7551 73.0137 20.2769 71.2865 20.2769C67.0302 20.2769 64.207 23.7045 64.207 28.044C64.207 32.3835 66.8475 35.826 71.1454 35.826C72.9439 35.826 74.6428 35.2082 75.7389 33.8033H75.8651V35.6018H80.0932V13.9711H75.6542ZM75.8651 31.9989H75.7181L74.7275 30.9697C74.083 31.6128 73.2008 31.9989 72.1701 31.9989C69.9959 31.9989 68.4752 30.2791 68.4752 28.0485C68.4752 25.8179 69.9959 24.0981 72.1701 24.0981C74.3443 24.0981 75.8651 25.8179 75.8651 28.0485V31.9989Z" fill="white"/>
<path d="M92.6032 13.9711L92.5898 21.9209H92.5052C91.2829 20.7551 89.9626 20.2769 88.2355 20.2769C83.9791 20.2769 81.1559 23.7045 81.1559 28.044C81.1559 32.3835 83.7965 35.826 88.0944 35.826C89.8928 35.826 91.5918 35.2082 92.6878 33.8033H92.8141V35.6018H97.0422V13.9711H92.6032ZM92.7933 31.9989H92.6462L91.6557 30.9697C91.0111 31.6128 90.129 31.9989 89.0983 31.9989C86.9241 31.9989 85.4034 30.2791 85.4034 28.0485C85.4034 25.8179 86.9241 24.0981 89.0983 24.0981C91.2725 24.0981 92.7933 25.8179 92.7933 28.0485V31.9989Z" fill="white"/>
<path d="M112.255 20.4875H115.5V24.2657H112.255V35.6015H107.816V24.2657H104.586V20.4875H107.816V16.3797H112.255V20.4875Z" fill="white"/>
</g>
<defs>
<clipPath id="clip0_731_2">
<rect width="115" height="50" fill="white"/>
</clipPath>
</defs>
</svg>
