<svg width="151" height="50" viewBox="0 0 151 50" fill="none" xmlns="http://www.w3.org/2000/svg">
<g>
<path d="M12.3445 35.2C12.6616 35.5162 13.111 35.7533 13.5603 36.0694L15.6482 32.5656C13.8774 31.4591 12.3445 30.2735 11.1551 28.8509C10.4944 31.5644 10.9173 33.9882 12.3445 35.2ZM15.0932 36.7281C15.1989 36.8334 15.3046 36.8334 15.3046 36.8334H15.4104C17.1812 37.3867 19.3749 36.6227 21.4628 34.6468C19.692 34.3307 17.8419 33.672 15.9654 32.5656L13.8774 36.0694C14.3267 36.3856 14.6703 36.6227 15.0932 36.7281ZM10.8115 28.2977C9.49004 26.6643 8.72357 24.8992 8.61785 23.3712C7.63994 26.875 8.40641 30.8268 10.8115 33.672C10.2565 32.1177 10.2565 30.2472 10.8115 28.2977ZM24.5552 31.4591C23.8944 32.5656 23.2337 33.5403 22.4672 34.4097C25.1102 34.7258 27.3039 34.1989 28.5197 32.9871C28.7311 32.6709 28.969 32.3285 29.0747 32.1177C29.8412 30.8004 30.2905 29.4832 30.5019 28.0606C30.0526 28.3767 29.2861 28.6138 28.4139 28.6138C27.7532 28.6138 26.9867 28.5084 26.1145 28.2977C25.6388 29.3778 25.2159 30.4843 24.5552 31.4591ZM22.0179 34.7522C20.5907 36.1748 18.952 37.1496 17.3926 37.3867C21.0135 38.0453 24.7666 36.7281 27.3832 34.0936C25.9824 34.8576 24.1058 35.0683 22.0179 34.7522ZM26.1938 17.5489C26.0881 17.4436 25.9824 17.4436 25.7445 17.3382C27.3832 19.6302 27.621 23.6873 26.1938 27.8498C28.3875 28.4031 30.0262 28.166 30.4755 27.2966C30.5812 26.0847 30.4755 24.7675 30.1583 23.5819C29.6033 21.0528 28.1761 18.9716 26.1938 17.5489ZM14.4325 21.5007C13.0052 19.9727 12.3445 18.6554 12.4502 17.5489C11.3401 18.4183 10.3622 19.5248 9.59576 20.7367C9.38432 21.0528 9.2786 21.2899 9.14645 21.6061C8.69714 23.3712 9.35789 25.6632 10.9173 27.7444C11.2344 26.6379 11.7895 25.5578 12.3445 24.4513C13.0052 23.4765 13.666 22.4754 14.4325 21.5007ZM24.1058 16.3634C24.0001 16.258 23.8944 16.258 23.6565 16.1527C22.2293 15.5994 20.8021 15.2833 19.2692 15.2833C16.9697 15.2833 14.8818 15.9419 12.8995 17.2591C12.4502 18.1285 13.111 19.5512 14.6703 21.2109C17.7362 17.9968 21.3571 16.1263 24.1058 16.3634ZM11.2609 28.1923C12.4766 29.6149 14.0096 30.9322 15.8861 32.0123L19.6127 25.4524C17.7362 24.3459 15.9918 23.055 14.776 21.8432C14.0096 22.7125 13.3488 23.7137 12.7938 24.6884C12.133 25.8739 11.578 26.9804 11.2609 28.1923ZM25.0838 17.1274L20.3528 25.347C22.2293 26.4535 24.0794 27.2175 25.8502 27.6391C27.1717 23.3712 26.8546 19.2087 25.0838 17.1274ZM25.6388 28.0606C23.868 27.6127 22.0179 26.7433 20.0356 25.7686L16.309 32.3285C18.1855 33.3032 20.1413 34.0936 21.9122 34.3043C22.7843 33.4349 23.5508 32.4338 24.2116 31.2483C24.7666 30.2472 25.2159 29.1671 25.6388 28.0606ZM15.0932 21.5007C16.4147 22.8179 17.9476 24.0298 19.8242 25.1099L24.5552 16.8903C21.9122 16.3634 18.0534 18.2076 15.0932 21.5007ZM6.97919 16.2317C10.9437 9.4347 18.8463 7.14269 26.1938 9.32932C17.8419 5.93082 8.06282 9.22394 3.46399 17.2065C-1.58414 25.9793 1.37602 37.1496 10.0451 42.2868L12.6881 37.6765C5.20838 33.3296 2.67109 23.7927 6.97919 16.2317ZM28.7311 10.5412L26.0881 15.1515C33.5678 19.5248 36.0786 29.1671 31.6913 36.6227C27.7268 43.4197 19.9299 45.7117 12.4766 43.525C20.8285 46.9235 30.7134 43.6304 35.3386 35.6479C40.466 26.875 37.5059 15.7048 28.7311 10.5412Z" fill="white"/>
<path d="M50.3029 25.2917C48.6651 24.6392 47.6613 24.0911 47.6613 22.9165C47.6613 21.742 48.533 21.0634 49.9595 21.0634C51.0689 21.0634 52.152 21.3766 53.0237 22.0291L54.1332 20.4108C53.5784 19.9671 52.2576 19.1058 49.9595 19.1058C47.3179 19.1058 45.4688 20.6196 45.4688 22.8904C45.4688 25.3961 47.3443 26.3618 49.2991 27.2232C51.3859 28.0845 52.3633 28.6326 52.3633 29.8332C52.3633 31.0339 51.2538 31.7908 49.616 31.7908C47.9783 31.7908 46.7631 31.1383 46.2084 30.6946L45.231 32.4433C45.7858 32.887 47.4235 33.7484 49.616 33.7484C52.6803 33.7484 54.6615 32.1301 54.6615 29.6244C54.7143 27.2493 52.8388 26.3879 50.3029 25.2917ZM63.0617 19.1058C59.4427 19.1058 56.6955 22.1335 56.6955 26.2574C56.6955 28.3194 57.2502 30.1725 58.3333 31.4776C59.5484 32.887 61.1862 33.644 63.273 33.644C65.9146 33.644 67.5524 32.5477 68.1071 32.2345L67.2354 30.4858L67.1297 30.5902C66.4693 31.0339 65.2542 31.7908 63.4051 31.7908C60.7635 31.7908 59.1257 29.8332 59.1257 26.3618H68.5562V26.2574C68.5562 25.9442 68.5562 25.6049 68.5562 25.3961C68.5562 21.5071 66.4693 19.1058 63.0617 19.1058ZM63.0617 21.0634C65.9146 21.0634 66.3637 23.569 66.3637 24.6392H59.2314C59.6541 22.264 60.9749 21.0634 63.0617 21.0634ZM82.6094 30.5119V12.6067H80.4169V20.3064C79.5452 19.5495 78.3301 19.1058 76.9036 19.1058C73.2846 19.1058 70.643 22.1335 70.643 26.3879C70.643 30.8251 72.9412 33.6701 76.4545 33.6701C77.9866 33.6701 79.4131 33.0175 80.4169 31.8169C80.4169 32.365 80.6282 33.0175 80.6282 33.2263H82.8207V33.1219C82.8207 32.5738 82.6094 31.3732 82.6094 30.5119ZM80.3905 22.264V29.8593C79.5188 31.06 78.198 31.7125 76.8772 31.7125C74.3413 31.7125 73.0469 29.8593 73.0469 26.3879C73.0469 23.1253 74.579 21.0634 77.1149 21.0634C78.4357 21.0634 79.4131 21.4027 80.3905 22.264ZM91.8285 31.3732C91.5116 31.3732 91.2738 31.3732 90.9568 31.3732C89.636 31.2688 88.9756 30.9295 88.9756 30.2769C88.9756 29.8332 89.2926 29.52 89.8474 29.1807C90.4021 29.2851 90.8247 29.3895 91.3795 29.3895C94.6815 29.3895 96.9796 27.3276 96.9796 24.2999C96.9796 23.2036 96.6626 22.1335 96.0022 21.2722H98.0891V19.5234H93.4663C92.8059 19.3146 92.0399 19.2102 91.2738 19.2102C87.9718 19.2102 85.6737 21.2722 85.6737 24.2999C85.6737 26.153 86.5454 27.6669 88.0775 28.5282C87.2058 29.0763 86.7567 29.8332 86.7567 30.6946C86.7567 31.6603 87.2058 32.3128 87.9718 32.7565C86.4397 33.6179 85.6737 34.9229 85.6737 36.3323C85.6737 38.838 87.7605 40.2475 91.2738 40.2475C93.1493 40.2475 94.7871 39.8038 96.1079 39.0468C97.4287 38.1855 98.1948 36.9849 98.1948 35.6798C98.3004 31.6081 94.6815 31.4776 91.8285 31.3732ZM91.4851 38.4204C89.2926 38.4204 87.9718 37.5591 87.9718 36.0452C87.9718 34.8446 88.6322 33.8789 89.8474 33.2263C90.5077 33.3307 91.1681 33.3307 91.8285 33.3307C92.0399 33.3307 92.2776 33.3307 92.4889 33.3307H92.5946C94.2324 33.4351 96.0022 33.5396 96.0022 35.6015C96.1079 37.2459 94.2324 38.4204 91.4851 38.4204ZM91.4851 20.959C93.572 20.959 94.7871 22.264 94.7871 24.2216C94.7871 26.1791 93.4663 27.4842 91.4851 27.4842C89.3983 27.4842 88.1832 26.1791 88.1832 24.2216C88.0775 22.264 89.3983 20.959 91.4851 20.959ZM113.886 29.8593L110.584 19.4451H108.497L105.195 29.8593L102.236 19.4451H99.8325L104.006 33.3307H105.987L109.501 22.7077L112.908 33.3307H114.89L119.169 19.4451H116.871L113.886 29.8593ZM122.894 13.8073C123.792 13.8073 124.531 14.5382 124.531 15.4256C124.531 16.313 123.792 17.0438 122.894 17.0438C121.995 17.0438 121.256 16.313 121.256 15.4256C121.256 14.5382 121.995 13.8073 122.894 13.8073ZM121.811 19.4451H124.109V33.3307H121.811V19.4451ZM136.841 30.6163C136.392 30.9295 135.203 31.8169 133.433 31.8169C130.369 31.8169 129.26 28.998 129.26 26.3879C129.26 23.0209 130.792 21.0634 133.328 21.0634C134.966 21.0634 135.864 21.6115 136.63 22.1596L137.739 20.5413C137.29 20.2281 135.969 19.1319 133.46 19.1319C130.264 19.1319 126.988 21.4027 126.988 26.414C126.988 29.8854 128.969 33.6962 133.354 33.6962C135.758 33.6962 137.185 32.8348 137.739 32.2867L136.841 30.6163ZM144.845 25.631L150.762 19.4451H148.041L142.336 25.631L148.253 33.3307H151L144.845 25.631ZM140.037 12.6067H142.23V33.3307H140.037V12.6067Z" fill="white"/>
</g>
</svg>
