<svg width="81" height="50" viewBox="0 0 81 50" fill="none" xmlns="http://www.w3.org/2000/svg">
<g clip-path="url(#clip0_730_2)">
<path fill-rule="evenodd" clip-rule="evenodd" d="M69.9485 22.6424L69.7628 22.1531H69.6039V22.8415H69.6975V22.2727L69.9217 22.8415H69.9886L70.2002 22.2727V22.8415H70.3064V22.1531H70.1341L69.9485 22.6424ZM68.9816 22.2325H69.194V22.8415H69.2994V22.2325H69.5119V22.1531H68.9816V22.2325ZM24.3301 28.9807C23.9588 28.5834 23.7731 28.0414 23.7731 27.353V24.3888H25.5613V22.6959H23.7731V19.5469H22.1045V27.3539C22.1045 28.4914 22.4491 29.4315 23.1249 30.1324C23.7324 30.7437 24.543 31.111 25.4032 31.1645L25.5621 31.1779V29.5636L25.4425 29.5511C25.0187 29.4909 24.6271 29.2907 24.3301 28.9823V28.9807ZM18.6342 24.812L14.6203 23.4763C14.383 23.4022 14.1657 23.2753 13.9846 23.1049C13.9188 23.049 13.865 22.9805 13.8263 22.9033C13.7877 22.8261 13.765 22.7419 13.7596 22.6558V22.3906C13.7596 21.4513 14.5417 20.9754 16.1434 20.9495H16.2898C17.8923 20.9495 18.7137 21.3727 18.8065 22.2325L18.8199 22.3647H20.542V22.2192C20.4626 20.2603 19.0315 19.2549 16.2898 19.2549H16.1175C13.4284 19.2817 12.0776 20.3406 12.0776 22.3915V22.6558C12.0723 23.2011 12.2599 23.7307 12.6071 24.1513C12.9517 24.5611 13.4686 24.8789 14.1168 25.0905L18.0914 26.4271C18.7664 26.6513 19.0976 27.0226 19.0976 27.578V27.8164C19.0976 28.3057 18.8592 28.6762 18.3691 28.9673C17.8789 29.2583 17.1504 29.4164 16.2505 29.4164C15.3488 29.4164 14.6471 29.2717 14.1569 28.9673C13.6668 28.6628 13.4544 28.3057 13.4544 27.8164V27.6441H11.7473V27.8164C11.7358 28.2856 11.8397 28.7505 12.0496 29.1704C12.2596 29.5902 12.5693 29.9521 12.9517 30.2244C13.7471 30.8065 14.8461 31.111 16.2513 31.111C17.6548 31.111 18.794 30.8199 19.576 30.2244C19.9605 29.9542 20.2718 29.5927 20.4821 29.1724C20.6923 28.7521 20.7948 28.2861 20.7804 27.8164V27.578C20.7951 26.95 20.5891 26.3368 20.1983 25.845C19.7857 25.359 19.2431 25.0007 18.6342 24.812ZM58.8485 27.2476C58.8485 28.1075 58.7164 28.7155 58.4646 29.0601C58.2263 29.378 57.8022 29.5494 57.1933 29.5494H57.113C56.5041 29.5494 56.0675 29.3771 55.8283 29.0601C55.5774 28.7155 55.4444 28.1066 55.4444 27.2476V22.6951H53.8017V27.2476C53.8017 28.6361 54.0543 29.6548 54.5703 30.2503C55.0605 30.8325 55.8551 31.1369 56.9415 31.1637H57.3388C58.4245 31.1377 59.2191 30.8325 59.7092 30.2512C60.2002 29.669 60.4787 28.6369 60.4787 27.2476V22.6951H58.836V27.2476H58.8485ZM31.9071 27.2476C31.9071 28.1075 31.7733 28.7289 31.5224 29.0601C31.2706 29.3905 30.8599 29.5494 30.2377 29.5494H30.185C29.5752 29.5494 29.1378 29.3771 28.8994 29.0601C28.6485 28.7155 28.5155 28.1066 28.5155 27.2476V22.6951H26.8728V27.2476C26.8728 28.6361 27.1237 29.6548 27.6415 30.2503C28.1316 30.8325 28.9262 31.1369 30.0127 31.1637H30.3974C31.4822 31.1377 32.2776 30.8325 32.7669 30.2512C33.2705 29.6423 33.5364 28.6369 33.5364 27.2476V22.6951H31.9071V27.2476ZM65.5908 24.0977C66.2934 24.0977 66.8228 24.27 67.18 24.6272C67.5379 24.9843 67.7236 25.5807 67.7236 26.4004V27.3396C67.7236 28.0146 67.538 28.5691 67.154 28.9673C66.7693 29.3637 66.2532 29.5628 65.59 29.5628C64.9292 29.5628 64.3989 29.3637 64.0409 28.9673C63.683 28.57 63.4847 28.028 63.4847 27.3396V26.387C63.4847 25.5673 63.6696 24.9709 64.015 24.6138C64.3588 24.2566 64.9016 24.0977 65.5908 24.0977ZM65.5908 22.4709C64.7034 22.4709 64.0016 22.7486 63.4847 23.2772V19.5469H61.8144V27.3263C61.8144 28.4646 62.1599 29.4039 62.8348 30.1048C63.5107 30.8074 64.4374 31.1637 65.6033 31.1637C66.7693 31.1637 67.7094 30.8065 68.3844 30.1048C69.0602 29.4039 69.4048 28.4654 69.4048 27.3263V26.387C69.3914 23.7941 68.1075 22.4709 65.5908 22.4709ZM50.7697 24.3361H45.4836V19.5201H43.7615V31.0708H45.4836V26.0164H50.7697V31.0708H52.5036V19.5201H50.7689L50.7697 24.3361ZM38.6485 24.0977C39.3511 24.0977 39.8806 24.27 40.2377 24.6272C40.5957 24.9843 40.7814 25.5807 40.7814 26.4004V27.3396C40.7814 28.028 40.5957 28.5574 40.2118 28.9673C39.827 29.3771 39.3244 29.5628 38.6485 29.5628C37.9736 29.5628 37.4567 29.3637 37.0987 28.9673C36.7415 28.57 36.5425 28.028 36.5425 27.3396V26.387C36.5425 25.5673 36.7282 24.9709 37.0728 24.6138C37.4165 24.2566 37.9593 24.0977 38.6485 24.0977ZM38.6485 22.4709C37.7619 22.4709 37.0594 22.7486 36.5425 23.2772V19.5469H34.8738V27.3263C34.8738 28.4646 35.2193 29.4039 35.8943 30.1048C36.5701 30.8074 37.4968 31.1637 38.6628 31.1637C39.8287 31.1637 40.7688 30.8065 41.4446 30.1048C42.1196 29.4039 42.4651 28.4654 42.4651 27.3263V26.387C42.4508 23.7941 41.1787 22.4709 38.6485 22.4709ZM2.63295 41.6564C2.23566 41.8153 2.01067 41.6171 2.14282 41.2064L3.26862 37.568C3.40944 37.0737 3.45904 36.5579 3.41499 36.0458L1.00448 13.1024C0.993686 13.0039 1.00245 12.9042 1.03027 12.8091C1.05808 12.714 1.1044 12.6253 1.16657 12.5481C1.22874 12.471 1.30553 12.4068 1.39253 12.3594C1.47954 12.312 1.57506 12.2822 1.6736 12.2718L1.70622 12.2693L80.2806 7.00246C80.3777 6.99407 80.4755 7.00723 80.567 7.041C80.6585 7.07478 80.7414 7.12833 80.8098 7.19784C80.8782 7.26735 80.9304 7.3511 80.9626 7.44311C80.9949 7.53512 81.0065 7.63313 80.9965 7.73013L77.804 42.4643C77.7808 42.6728 77.6785 42.8645 77.5182 42.9999C77.358 43.1352 77.1519 43.204 76.9425 43.192L10.1832 38.9038C9.66837 38.8878 9.15544 38.9731 8.67347 39.1547L2.63295 41.6564Z" fill="white"/>
</g>
<defs>
<clipPath id="clip0_730_2">
<rect width="80" height="50" fill="white" transform="translate(0.5)"/>
</clipPath>
</defs>
</svg>
